<?xml version="1.0" encoding="UTF-8"?>
<!DOCTYPE svg PUBLIC "-//W3C//DTD SVG 1.1//EN" "http://www.w3.org/Graphics/SVG/1.1/DTD/svg11.dtd">
<!-- Creator: CorelDRAW 2020 (64 Bit) -->
<svg xmlns="http://www.w3.org/2000/svg" xml:space="preserve" width="80px" height="74px" version="1.1" style="shape-rendering:geometricPrecision; text-rendering:geometricPrecision; image-rendering:optimizeQuality; fill-rule:evenodd; clip-rule:evenodd"
viewBox="0 0 4200.93 3881.77"
 xmlns:xlink="http://www.w3.org/1999/xlink"
 xmlns:xodm="http://www.corel.com/coreldraw/odm/2003">
 <defs>
  <style type="text/css">
   <![CDATA[
    .fil1 {fill:#FEFEFE}
    .fil2 {fill:#E6E7E8}
    .fil3 {fill:#361C04}
    .fil6 {fill:#DB7807}
    .fil8 {fill:#ED8942}
    .fil7 {fill:#EE9E63}
    .fil0 {fill:#F32041}
    .fil4 {fill:#F4E45B}
    .fil5 {fill:#F4E45B}
    .fil9 {fill:#FEFEFE;fill-rule:nonzero}
    .fil10 {fill:#373435;fill-rule:nonzero}
    .fil11 {fill:#F0E7C0;fill-rule:nonzero}
   ]]>
  </style>
   <clipPath id="id0">
    <path d="M1147.1 2045.4c1.92,86.44 3.15,173.79 3.49,261.96 2.58,-9.41 5.45,-18.84 8.57,-28.29 13.93,-42.2 34.84,-78.76 61.28,-109.74 26.36,-30.89 58.05,-57.53 97.13,-76.87 85.46,-42.31 175.88,-38.88 267.27,8.86 13.82,7.22 23.41,14.64 30.21,20.09l0.1 -10.18c65.84,-9.1 128.1,-12.81 186.77,-10.15 0.98,41.82 1.96,84.04 2.28,126.34 0.32,42.3 0.98,84.92 1.31,127.63 28.36,-2.34 58.67,-4.67 90.94,-7.33 0,-38.27 0.32,-78.48 0.32,-120.46 0,-41.9 0.65,-85.73 0.98,-131.25 65.84,-11.76 128.1,-16.92 186.77,-15.23 2.28,95.72 3.59,192.65 3.59,290.71 0,94.64 -0.61,190.48 -2.11,287.31 34.31,-128.51 63.79,-237.13 88.49,-325.42 27.57,-98.57 49.87,-172.27 65.84,-220.93 74.31,-18.29 141.13,-26.51 200.13,-23.53 33.57,86.54 66.75,176.88 99.09,270.89 27.85,80.95 55.57,165 82.81,252.19 -0.66,-57.49 -0.89,-117.35 -0.99,-179.51 -0.16,-97.98 0.65,-201.92 2.61,-311.98 55.41,-16.6 110.82,-34.16 166.23,-52.37 25.75,33.28 53.19,70.95 81.81,113.05 28.74,42.26 59.32,88.71 91.59,139.72 -1.96,-33.76 -3.26,-71.71 -3.59,-113.77 -0.32,-42.22 0,-88.63 0.98,-139.31 84.42,-16.04 147,-21.6 187.42,-17.32 2.02,90.61 3.35,177.23 3.93,259.74 15.77,-77.93 45.75,-142 87.01,-192.79 56.03,-68.97 134.66,-113.56 235.98,-136.97 83.52,-19.29 155.32,-0.93 205.67,70.42 29.01,41.12 40.32,94.12 44.98,151.8 5.11,63.18 0.37,130.47 -18.25,199.82 -20.5,76.36 -50.68,136.9 -88.65,180.24 -115.56,131.92 -242.41,156.41 -371.58,73.08 -45.71,-29.49 -75.59,-80.29 -93.22,-143.26 -0.76,-2.73 -1.5,-5.47 -2.2,-8.21 -0.64,58.43 -1.79,114.45 -3.34,167.98 -58.35,25.62 -104.95,38.27 -140.16,38.19 -26.08,-41.58 -55.99,-86.75 -89.64,-135.12 -33.49,-48.15 -71.38,-99.67 -112.78,-154.46 0,48.34 0,96.69 0,144.95 0,48.26 0,96.69 0.33,144.95 -98.11,5 -159.06,4.27 -182.53,-1.85 -0.34,-15.27 -0.65,-30.73 -0.91,-46.37 -33.29,14.49 -92.81,27.33 -178.37,38.15 -6.52,-22.8 -12.71,-44.72 -18.9,-65.75 -40.42,3.71 -90.94,8.3 -151.24,13.86 -4.89,22.07 -9.78,44.32 -14.34,66.63 -90.94,5.48 -152.87,1.37 -186.11,-12.08l8.92 -33.47c-53.73,8.53 -114.07,14.18 -181.02,16.79 -1.63,-47.46 -3.26,-101.2 -4.24,-161.31 -30.64,2.74 -61.6,5.4 -92.57,7.82 -0.33,53.5 -0.98,107.16 -1.96,161.15 -54.43,8.95 -115.71,14.74 -183.83,17.57 -1.31,-31.98 -2.36,-66.84 -3.18,-104.56 -7.96,8.55 -18.09,18.43 -31.37,28.41 -51.78,38.92 -110.44,58.98 -172.43,59.95 -91.58,1.44 -160.51,-24.93 -206.32,-74.53 -25.31,-27.4 -44.18,-62.37 -55.82,-104.74 -0.33,53.48 -0.9,107.29 -1.88,161.39 -54.44,9.27 -115.71,15.23 -183.83,17.97 -1.52,-45.31 -2.82,-95.91 -3.77,-151.74 -6.77,17.56 -16.22,32.48 -28.17,44.9 -15,15.59 -30.09,29.32 -46.94,39.96 -73.45,46.41 -159.13,71.16 -256.52,76.79 -28.13,1.63 -78.88,4.51 -151.89,4.67 -2.61,-110.95 -4.24,-224.4 -4.24,-340.18 0,-115.71 1.3,-233.74 3.91,-354.04 44.33,-19.9 108.22,-29.21 191.01,-27.56 134.62,2.69 224.75,50.31 264.34,143.26 14.87,34.93 13.99,70.01 4.24,102.73 -9.8,32.87 -30.64,64.62 -62.91,95.48 41.61,24.03 70.13,50.88 85.7,80.71 -0.61,-107.41 -0.27,-229.71 1.33,-366.91 65.52,-5.96 127.77,-5.32 186.44,1.45zm2130.4 984.43c-14.69,-46.46 -46.81,-67.86 -96.38,-64.39 -42.31,1.39 -76.49,18.72 -102.73,52.21 -28.89,42.4 -36.24,84.61 -22.14,126.61 22.82,45.97 56.12,66.38 99.9,61.22 52.2,-9.31 90.1,-41.21 113.61,-95.8 11.07,-28.83 13.71,-55.48 7.74,-79.85zm-1329.15 149.5c-15.87,-51.61 -29.19,-93.03 -39.86,-124.23 -11.66,43.99 -22.82,87.58 -33.3,130.87l73.16 -6.64zm-112.14 173.86c-5.19,23.58 -10.28,47.26 -15.28,71.13 -95.98,5.75 -161.5,1.39 -196.47,-13.08 83.35,-316.53 142.01,-526.65 175.81,-630.08 78.64,-18.23 149.07,-24.67 211.25,-19.52 66.21,172.51 130.54,358.68 192.99,558.41 -4.53,-185.59 -4.97,-353.89 -1.27,-505.01 81.68,-27.44 154.06,-45.37 217.23,-53.7 13.71,28.63 34.28,78.27 61.51,148.8 27.23,70.54 47.01,115.81 59.25,135.92 22.24,-32.69 60.43,-121.26 114.79,-265.8 62.97,-4.85 133.69,-1.88 212.33,9.02 2.32,70.86 3.75,147.13 4.31,228.82 42.09,-168.31 154.54,-258.37 337.45,-270.03 87.95,-7.63 160.33,22.88 217.13,91.34 26.84,41.41 42.71,87.68 47.7,138.8 5.19,55.88 -1.47,113.93 -19.78,174.16 -23.41,65.78 -54.55,117.79 -93.54,156.13 -123.2,117 -254.06,137.21 -392.54,60.33 -44.75,-31.79 -77.03,-77.63 -96.85,-137.41 -0.56,56.68 -1.47,115.46 -2.72,176.35 -58.37,9.21 -121.84,15.36 -190.29,18.23 -1.67,-6.93 -2.94,-80.64 -3.72,-221.12 -85.5,166.53 -131.44,250.25 -137.7,251.04l-138.29 -271.35c-0.39,66.57 -0.98,141.67 -1.76,225.48 -61.8,9.71 -125.17,15.75 -190.2,18.33 -0.63,-20.07 -1.22,-39.95 -1.77,-59.64 -34.9,15.26 -98.26,28.7 -189.95,40.12 -6.95,-24.17 -13.62,-47.36 -20.08,-69.65 -42.71,3.67 -95.89,8.32 -159.55,13.97zm-221.29 -1216.26c-16.69,34.03 -33.05,63.84 -48.32,89.28 -16.97,28.26 -33.57,51.16 -49.22,68.73 -29.33,-17.65 -58.94,-29 -88.66,-29.57 -41.06,-0.79 -76.62,23.76 -99.74,73.32 -19.63,42.08 -15.43,84.58 10.11,121.35 20.79,29.93 53.34,42.01 93.22,35.29 32.86,-5.54 65.52,-22.24 99.09,-45.61 22.03,21.28 49.99,61.69 84.11,120.93 -0.62,-36.36 -1.06,-75.11 -1.32,-116.25 -0.61,-93.43 -0.36,-199.22 0.73,-317.47zm1924.31 142.95c-12.84,-49.71 -44.17,-68.85 -91.27,-61.4 -39.96,6.32 -73.78,26.3 -97.46,64.78 -28.49,46.3 -36.83,92.71 -20.53,135.04 18.64,48.42 53.44,68.81 94.52,59.79 49.9,-10.96 86.36,-48.73 107.56,-110.15 11.07,-32.07 13.89,-62.08 7.17,-88.07zm-2908.74 246.15c96.15,7.98 145.5,-14.81 141.13,-67.44 -1.83,-22.09 -17.32,-34.62 -38.79,-39.24 -26.11,-5.61 -60.95,-2.26 -104.95,10.23 -0.65,35.13 0.33,67.36 2.61,96.45zm0.98 -262.51c80.18,7.65 117.33,-10.12 113.1,-52.62 -1.97,-19.79 -11.12,-33.69 -29.34,-39.08 -24.84,-7.35 -54.43,-6.77 -87.03,-0.72 -0.33,31.34 0.65,62.21 3.26,92.42z"/>
   </clipPath>
 </defs>
 <g id="Camada_x0020_1">
  <metadata id="CorelCorpID_0Corel-Layer"/>
  <path class="fil0" d="M2099.5 220.83c143.88,-134.68 351.69,-198.34 543.78,-215.66 170.98,-15.42 362.92,2.71 523.09,67.02 409.34,164.37 676.33,575.4 671.02,1014.88 -3.13,258.5 -91.96,505.53 -235.96,716.51 87.82,16.11 165.87,64.42 223.35,145.86 50.16,71.07 69.68,153.57 76.6,239.07 7.04,87.06 -1.05,175.28 -23.7,259.63 -24.36,90.73 -63.89,179.39 -126.24,250.56 -39.92,45.57 -85.93,86.46 -137.77,117.9 19.54,45.98 31.65,94.64 36.44,144.95 7.8,81.92 -2.72,163.48 -26.6,242.02 -0.8,2.63 -1.66,5.22 -2.58,7.81 -29.49,82.88 -72.84,160.54 -135.93,222.59 -0.73,0.72 -1.47,1.43 -2.21,2.14 -148.18,140.72 -332.52,194.08 -522.2,122.43 -19.41,11.65 -40.98,19.47 -63.63,23.05 -69.62,10.99 -139.95,17.27 -210.36,20.23 -15.18,0.64 -30.32,-0.64 -45.05,-3.81 -23.72,17.51 -50.87,28.61 -81.7,32.5 -53,6.7 -104.46,-10.18 -142.04,-45.49 -67.33,10.28 -135.25,16.5 -203.3,19.2 -38.8,1.54 -75.23,-8.99 -106.29,-30.46 -23.49,3.68 -47.06,6.8 -70.65,9.73 -37.71,4.7 -75.26,-2.82 -107.47,-20.71 -27.8,21.88 -62.05,35.01 -98.66,37.2 -86.43,5.18 -193.35,7.34 -274.23,-26.12 -81.55,-33.73 -125.38,-122.05 -102.9,-207.4 3.04,-11.54 6.08,-23.06 9.12,-34.6 -14.68,2.71 -29.38,5.36 -44.08,7.98 -24.88,4.43 -49.66,3.83 -73.59,-2.18 -45.28,19.73 -94.27,29.38 -143.91,28.51 -6.37,-0.11 -12.64,-0.56 -18.96,-1.36 -11.32,-1.43 -22.53,-3.49 -33.57,-6.22 -3.46,3.04 -6.94,6.05 -10.43,9.05 -48.6,41.66 -113.2,53.53 -172.21,32.7 -69.62,13.24 -140.77,2.2 -205.85,-26.1 -4.45,-1.94 -8.78,-4.04 -13.05,-6.33 -63.23,-33.94 -110.32,-87.17 -140.73,-151.78 -1.2,-2.55 -2.33,-5.12 -3.41,-7.73 -14.67,-35.51 -24.37,-72.87 -28.57,-111.08 -0.42,-3.8 -0.71,-7.58 -0.88,-11.4 -3.12,-70.49 7.47,-140.57 35.65,-202.9 -44.03,2.13 -88.09,3.3 -132.17,3.4 -95.62,0.21 -174.04,-76.23 -176.29,-171.82 -2.7,-114.75 -4.28,-229.54 -4.28,-344.32 0,-119.29 1.37,-238.59 3.95,-357.86 1.5,-69 40.88,-128.43 103.84,-156.7 61.6,-27.66 131.07,-39.02 199.52,-42.19 -148.03,-213.14 -239.62,-463.89 -242.8,-726.46 -5.31,-439.48 261.68,-850.51 671.02,-1014.88 160.16,-64.31 352.1,-82.43 523.09,-67.02 192.09,17.32 399.9,80.98 543.78,215.66zm-2098.54 2467.08c8.54,54.31 68.16,94 115.31,107.6 31.55,9.1 50.75,-18.57 67.37,-37.32 102.98,-116.22 7.69,-195.04 -61.19,-145.11 -32.98,23.91 -37.8,-15.34 -86.08,3.78 -22.51,8.91 -40.82,36.75 -35.42,71.05zm110.45 -450.24c2.23,27.64 30.69,49.88 53.89,58.52 15.52,5.78 26.23,-7.4 35.31,-16.19 56.23,-54.51 11.32,-97.79 -25.23,-75.31 -17.5,10.76 -18.43,-9.16 -43.44,-1.39 -11.66,3.62 -21.93,16.92 -20.53,34.38zm4088.57 629c-8.54,54.32 -68.16,94 -115.31,107.6 -31.55,9.1 -50.75,-18.57 -67.37,-37.32 -102.98,-116.22 -7.69,-195.03 61.19,-145.11 32.98,23.91 37.8,-15.34 86.08,3.78 22.5,8.91 40.82,36.75 35.42,71.04zm-283.78 303.08c-14.3,39.12 -64.43,59.88 -101.46,63.08 -24.78,2.14 -35,-21.23 -44.6,-37.6 -59.52,-101.46 22.85,-146.08 66.72,-98.89 21.01,22.6 30.34,-5.86 63.42,15.42 15.42,9.92 24.96,33.29 15.92,57.99zm190.29 -611.99c-3.16,24.12 -29.07,42.35 -49.77,48.91 -13.85,4.39 -22.65,-7.63 -30.21,-15.73 -46.88,-50.22 -5.64,-86.17 25.39,-64.88 14.86,10.2 16.54,-7.21 38.11,0.69 10.06,3.68 18.47,15.79 16.48,31.02z"/>
  <path class="fil1" d="M2083.44 436.93c4.21,4.77 9.69,7.25 16.06,7.24 6.37,-0.01 11.85,-2.51 16.04,-7.29 201.26,-229.47 454.02,-320.14 755.83,-288.79 84.81,8.81 168.55,28.9 247.71,60.68 351.55,141.17 581.41,496.48 576.85,873.87 -3.86,319.11 -157.43,618.83 -381.73,840.19 -300.65,296.71 -708.86,444.95 -1123.65,484.88 -29.28,2.82 -58.71,4.12 -88.12,3.25l-2.29 -0.07c-0.42,-0.01 -0.84,-0.01 -1.25,0l-2.29 0.07c-29.4,0.87 -58.84,-0.43 -88.12,-3.25 -414.79,-39.93 -822.99,-188.18 -1123.65,-484.88 -224.31,-221.35 -377.87,-521.08 -381.73,-840.19 -4.56,-377.39 225.3,-732.71 576.85,-873.87 357.9,-143.71 746.28,-63.15 1003.52,228.16z"/>
  <path class="fil2" d="M688.58 513.24l1446.74 0 0 184.35 -1553.46 0c-1.63,3.72 -3.26,7.44 -4.84,11.17l1275.94 0 0 154.56 -1293.42 0 0 11.17 952.64 0 0 178.21 -1008.95 0c-0.08,3.72 -0.15,7.45 -0.19,11.17l704.65 0 0 164.43 -692.49 0c0.57,3.73 1.18,7.45 1.79,11.17l979.33 0 0 170.38 -936.94 0c1.25,3.73 2.51,7.45 3.79,11.17l659.42 0 0 169.46 -585.87 0c1.97,3.73 3.96,7.46 5.96,11.17l861.08 0 0 158.29 -760.36 0c2.77,3.74 5.55,7.46 8.35,11.17l466.14 0 0 150.83 -333.98 0 0.89 0.88c3.5,3.46 7.03,6.87 10.57,10.29l2408.24 0c3.53,-3.42 7.06,-6.83 10.57,-10.29l0.89 -0.88 -203.38 0 0 -150.83 335.54 0c2.8,-3.71 5.58,-7.44 8.35,-11.17l-598.99 0 0 -158.29 699.71 0c2.01,-3.72 4,-7.44 5.96,-11.17l-265.24 0 0 -169.46 338.79 0c1.23,-3.56 2.44,-7.12 3.63,-10.69l0 -0.48 -694.36 0 0 -170.38 694.36 0 0 -11.17 -1148.26 0 0 -164.43 1148.26 0 0 -11.17 -807.48 0 0 -178.21 842.65 0c-0.82,-3.73 -1.69,-7.45 -2.55,-11.17l-1053.76 0 0 -154.56 1003.66 0c-1.58,-3.74 -3.21,-7.46 -4.84,-11.17l-1470.64 0 0 -184.35 1363.92 0c-2.77,-3.74 -5.57,-7.47 -8.4,-11.17l-1005.91 0 0 -159.22 779.75 0 0 -11.17 -1053.05 0c-4.39,3.66 -8.75,7.4 -13.09,11.17l275.22 0 0 159.22 -636.39 0 0 -159.22 138.8 0c-4.47,-3.78 -8.97,-7.5 -13.49,-11.17l-1107.93 0c-4.75,3.68 -9.46,7.4 -14.13,11.17l985.57 0 0 159.22 -1140.39 0c-2.83,3.7 -5.62,7.43 -8.4,11.17zm2411.94 1408.71l-675.96 0 0 -150.83 675.96 0 0 150.83zm-687.14 0l-1184.31 0 0 -150.83 1184.31 0 0 150.83zm432.04 -162l-536.3 0 0 -158.29 536.3 0 0 158.29zm-547.48 0l-783.01 0 0 -158.29 783.01 0 0 158.29zm-1064.19 -338.91l607.06 0 0 169.46 -607.06 0 0 -169.46zm618.24 0l633.13 0 0 169.46 -633.13 0 0 -169.46zm644.31 0l789.55 0 0 169.46 -789.55 0 0 -169.46zm437.61 -11.17l-625.69 0 0 -170.38 625.69 0 0 170.38zm-636.86 0l-789.55 0 0 -170.38 789.55 0 0 170.38zm-558.65 -181.55l0 -164.43 741.61 0 0 164.43 -741.61 0zm-11.17 -164.43l0 164.43 -508.37 0 0 -164.43 508.37 0zm1093.56 -11.17l-1297.44 0 0 -178.21 1297.44 0 0 178.21zm-213.66 -189.38l-742.99 0 0 -154.56 742.99 0 0 154.56z"/>
  <g id="_2343911464208">
   <path class="fil3" d="M1582.47 1079.66c11.17,6.08 22.02,11.95 32.56,17.61 -57.46,26.14 -119.95,63.39 -154.24,100.82 -0.94,1.03 -1.2,2.4 -0.62,3.26 0.58,0.87 1.83,0.94 2.95,0.17 57.93,-39.68 107.37,-72.45 164.6,-97.46 153.55,81.79 240.44,117.69 300.52,137.61 81.06,26.87 96.04,33.63 100.97,115.24 11.88,127.46 -123.72,238.12 -186.95,407.42 -51.8,104.41 -23.33,173.95 -61.1,253.66 -10.63,22.43 622.19,-18.25 620.98,-22.27 -9.39,-31.2 -15.47,-60.33 -20.29,-87.99 114.84,-77.69 163,-190.65 221.52,-294.73 52.79,-93.89 162.12,-202.89 264.63,-249.69 160.89,-73.45 336.96,17.52 254.95,154.46 -34.49,57.58 -26.87,27.64 -73.9,20.82 -31.5,-4.57 -56.48,9.56 -66.64,45.54 -17.81,63.1 38.61,103.96 94.73,63.94 32.32,-23.05 59.74,-65.25 69.41,-93.4 24.38,-49.79 70.31,-197.89 -19.62,-262.66 -109.57,-78.91 -261.79,-43.72 -393.34,41.42 -195.91,139.25 -260.81,443.43 -358.36,533.43 -11.03,-71.02 -20.46,-133.47 -68.58,-199.04 -77.76,-133.97 -174.04,-207.63 -176.08,-329.91 -9,-104.53 174.79,-90.05 393.61,-218.76 0.8,-0.47 1.78,-0.79 2.96,-0.95 46.88,23.2 89.91,51.9 139.06,85.56 1.12,0.77 2.36,0.7 2.95,-0.17 0.58,-0.86 0.32,-2.23 -0.62,-3.26 -27.25,-29.74 -72.31,-59.37 -118.5,-83.41 -3.25,-6.56 -5.51,-9.68 -2.78,-11.27 12.11,-7.06 20.48,-13.47 30.58,-16.19 65.18,18.09 118.77,47.13 182.73,83.34 1.12,0.64 2.36,0.43 2.95,-0.52 0.58,-0.93 0.32,-2.27 -0.62,-3.18 -35.93,-34.95 -102.82,-66.06 -162.44,-85.23 -3.04,-4.04 -7.64,-5.92 -4.78,-7.81 10.3,-6.8 20.67,-13.94 31.08,-21.39 -1.34,-2.73 -2.67,-5.43 -4.01,-8.1 52.63,7.98 99.37,24.53 153.54,44.81 1.12,0.42 2.36,-0.04 2.95,-1.09 0.58,-1.04 0.32,-2.33 -0.62,-3.06 -35.98,-28.1 -103.02,-46.37 -162.7,-54.09 -21.87,-42.13 -43.71,-76.39 -66.45,-104.32 89.93,-88.5 41.71,-212.27 8.26,-225.51 -42.14,-16.68 -269.05,86.35 -279.95,102.03 -118.64,-10.26 -258.17,-15.71 -376.02,1.96 -52.98,-24.44 -254.83,-117.83 -299.97,-93.7 -40.35,21.57 -71.39,157.54 24.4,221.88 -18.59,23.55 -30.2,47.57 -38.1,69.87 -1.18,3.34 -29.26,19.02 -25.86,18.77 8.44,-0.61 18.06,-0.44 18.87,2.7 -66.47,-1.66 -179.47,18.44 -230.36,58.18 -0.94,0.74 -1.2,2.02 -0.62,3.06 0.58,1.05 1.82,1.51 2.95,1.09 74.59,-27.93 135.08,-48.78 216.31,-49.93 -4.02,3.46 -7.16,6.26 -5.59,6.09 5.9,-0.61 12.74,0.44 11.93,3.98 -1.62,7.07 -8.88,15.63 -12.43,22.38 -66.19,16.91 -153.76,53.29 -196.83,95.19 -0.94,0.91 -1.2,2.25 -0.62,3.18 0.58,0.94 1.83,1.16 2.95,0.52 73.8,-41.79 133.79,-74.02 213.71,-90.9z"/>
   <path class="fil4" d="M2379.31 1041.55c-80.58,42.19 -271.83,45.84 -290.37,-36.12 -0.85,-51.18 44.85,-72.46 102.24,-76.05 -11.64,23.66 -11.22,85.65 14.15,97.3 21.22,-8.91 20.28,-74.1 6.99,-97.86 62.16,0.51 132.48,18.63 171.66,40.63 44.26,24.85 37.4,50.08 -4.67,72.1zm-348.55 -58.52c-10.69,-33.61 -56.02,-50.35 -109.67,-54.14 7.31,26.54 5.7,81.11 -13.7,91.96 -19.85,-8.34 -20.31,-65.95 -9.39,-92.79 -90.92,-0.35 -194.28,32.61 -194.28,81.73 0,95.98 359.4,74.96 327.04,-26.77zm451.54 -120.21c-32.1,-26.43 -75.95,-42.81 -129.77,-50.62 125.57,-71.26 187.13,-58.9 129.77,50.62zm-809.69 15.7c37.79,-31.12 90.57,-56.21 153.93,-65.41 -147.82,-83.89 -221.45,-63.53 -153.93,65.41z"/>
  </g>
  <g id="_2343911463536">
   <path class="fil5" d="M1769.85 174.2c-322.39,647.21 -610.68,991.27 -877.22,1141.89 51.61,232.66 52.9,439.51 20.63,659.75 -754.46,-619.91 -401.36,-2098.14 856.59,-1801.64z"/>
   <path class="fil6" d="M520.84 1062.49c62.98,24.97 120.79,56.19 178.73,88.68 -2.38,-25.32 -3.18,-51.21 -1.49,-76.93 2.13,-32.43 7,-65.07 16.9,-95.58 35.39,-109.04 45.19,-109.27 9.41,1.65 -9.8,30.39 -14.59,62.94 -16.65,95.31 -1.73,27.22 -0.63,54.63 2.16,81.35 22.42,12.61 44.92,25.37 67.79,37.98 4.76,2.62 9.8,5.41 15.08,8.28 79.08,-96.76 156.59,-204.88 217.87,-311.96 110.37,-192.88 119.07,-182.45 10.58,6.93 -61.19,106.81 -138.38,214.57 -217.17,311.1 24.17,12.84 52.18,26.51 80.23,35.43 76.56,-63.46 214.07,-226.02 350.63,-421.57 87.52,-125.33 174.48,-264.11 244.57,-398.92 124.3,-239.12 132.31,-228.57 10.14,6.23 -70.29,135.1 -157.36,274.03 -244.97,399.49 -133.01,190.48 -267.63,350.16 -346.99,418.64 23.55,6.12 46.69,8.26 67.16,3.06 34.46,-8.75 32.71,-16.78 66.47,-30.33l-0.06 8.49c-0.39,56.49 -11.35,121.84 -61.11,156.53 -31.41,21.91 -71.66,26.76 -111.26,24.2 -3.2,17.17 -7.34,34.07 -12.66,50.48 -43.61,134.38 -55.69,134.66 -11.6,-2.04 5.18,-16.06 9.22,-32.61 12.35,-49.42 -20.67,-2.08 -40.9,-5.92 -59.31,-10.16l-1.91 -0.45c-2.12,9.43 -4.63,18.73 -7.59,27.84 -35.39,109.04 -45.19,109.27 -9.41,-1.65 3,-9.29 5.53,-18.79 7.65,-28.43 -81.26,-20.03 -164.32,-54.54 -240.95,-86.96 -13.67,-82.11 -18.48,-165.21 -14.59,-247.3z"/>
   <path class="fil7" d="M520.36 1073.67c230.76,92.22 370.88,251.85 500.13,165.4 -3.48,240.27 -216.61,172.88 -481.99,60.56l-17.56 -124.8c-1.66,-33.78 -1.85,-67.54 -0.58,-101.15z"/>
   <path class="fil8" d="M520.29 1159.4c220.05,88.35 357.57,237.56 482.05,174.57 -57.08,121.86 -242.22,59.45 -463.84,-34.35l-17.56 -124.8c-0.25,-5.14 -0.47,-10.28 -0.65,-15.42z"/>
  </g>
  <g id="_2343911465984">
   <path class="fil5" d="M2481.23 174.2c322.39,647.21 610.68,991.27 877.22,1141.89 -51.61,232.66 -52.9,439.51 -20.63,659.75 754.46,-619.91 401.36,-2098.14 -856.59,-1801.64z"/>
   <path class="fil6" d="M3730.24 1062.49c-62.98,24.97 -120.79,56.19 -178.73,88.68 2.38,-25.32 3.18,-51.21 1.49,-76.93 -2.13,-32.43 -7,-65.07 -16.9,-95.58 -35.39,-109.04 -45.19,-109.27 -9.41,1.65 9.8,30.39 14.59,62.94 16.65,95.31 1.73,27.22 0.63,54.63 -2.16,81.35 -22.42,12.61 -44.92,25.37 -67.79,37.98 -4.76,2.62 -9.8,5.41 -15.08,8.28 -79.08,-96.76 -156.59,-204.88 -217.87,-311.96 -110.37,-192.88 -119.07,-182.45 -10.58,6.93 61.19,106.81 138.38,214.57 217.17,311.1 -24.17,12.84 -52.18,26.51 -80.23,35.43 -76.56,-63.46 -214.07,-226.02 -350.63,-421.57 -87.52,-125.33 -174.48,-264.11 -244.57,-398.92 -124.3,-239.12 -132.31,-228.57 -10.14,6.23 70.29,135.1 157.36,274.03 244.97,399.49 133.01,190.48 267.63,350.16 346.99,418.64 -23.55,6.12 -46.69,8.26 -67.16,3.06 -34.46,-8.75 -32.71,-16.78 -66.47,-30.33l0.06 8.49c0.39,56.49 11.35,121.84 61.11,156.53 31.41,21.91 71.66,26.76 111.26,24.2 3.2,17.17 7.34,34.07 12.66,50.48 43.61,134.38 55.69,134.66 11.6,-2.04 -5.18,-16.06 -9.22,-32.61 -12.35,-49.42 20.67,-2.08 40.9,-5.92 59.31,-10.16l1.91 -0.45c2.12,9.43 4.63,18.73 7.59,27.84 35.39,109.04 45.19,109.27 9.41,-1.65 -3,-9.29 -5.53,-18.79 -7.65,-28.43 81.26,-20.03 164.32,-54.54 240.95,-86.96 13.67,-82.11 18.48,-165.21 14.59,-247.3z"/>
   <path class="fil7" d="M3730.72 1073.67c-230.76,92.22 -370.88,251.85 -500.13,165.4 3.48,240.27 216.61,172.88 481.99,60.56l17.56 -124.8c1.66,-33.78 1.85,-67.54 0.58,-101.15z"/>
   <path class="fil8" d="M3730.79 1159.4c-220.05,88.35 -357.57,237.56 -482.05,174.57 57.08,121.86 242.22,59.45 463.84,-34.35l17.56 -124.8c0.25,-5.14 0.47,-10.28 0.65,-15.42z"/>
  </g>
  <path class="fil3" d="M2083.64 447.65c-251.6,-284.92 -632.75,-368.97 -990.69,-225.24 -347.31,139.46 -573.98,490 -569.47,862.7 3.81,315.05 155.41,610.92 376.86,829.45 296.83,292.93 699.7,439.26 1109.29,478.69 28.89,2.78 57.98,4.06 86.99,3.21l2.26 -0.07c0.43,-0.01 0.81,-0.01 1.24,0l2.26 0.07c29.01,0.85 58.11,-0.43 86.99,-3.21 409.59,-39.43 812.45,-185.76 1109.29,-478.69 221.44,-218.53 373.04,-514.4 376.86,-829.45 4.51,-372.7 -222.17,-723.24 -569.47,-862.7 -78.13,-31.37 -160.83,-51.21 -244.54,-59.91 -304.04,-31.59 -550.2,61.66 -746.17,285.1 -4.14,4.73 -9.55,7.19 -15.84,7.2 -6.28,0.01 -11.7,-2.44 -15.86,-7.15zm-1027.41 -316.68c-409.73,164.53 -635.87,569.82 -631.28,955.33 7.58,620.98 550.54,1306.37 1575.23,1405.02 35.17,3.39 67.97,4.51 98.72,3.64 0.42,-0.01 0.78,-0.01 1.2,0 30.75,0.87 63.56,-0.25 98.72,-3.64 1024.69,-98.64 1567.64,-784.04 1575.23,-1405.02 4.59,-385.51 -221.54,-790.8 -631.28,-955.33 -301.53,-121.08 -796.28,-87.26 -1027.74,164.07 -4.15,4.5 -9.41,6.82 -15.53,6.82 -6.12,0 -11.38,-2.32 -15.53,-6.82 -231.46,-251.33 -726.21,-285.15 -1027.74,-164.07z"/>
  <path class="fil3" d="M3538.78 2792.49c31.02,53.55 49.36,112.27 55.27,174.39 7.1,74.63 -2.67,148.77 -24.41,220.31 -0.57,1.88 -1.09,3.46 -1.75,5.31 -26.6,74.74 -65.43,145.33 -122.36,201.32 -0.52,0.51 -0.97,0.95 -1.51,1.45 -144.38,137.11 -315.53,178.07 -491.5,99.02 -17.1,16.36 -39.23,27.71 -64.35,31.67 -67.46,10.65 -135.72,16.73 -203.93,19.59 -19.99,0.84 -39.08,-3.15 -56.04,-11.06 -18.94,20.64 -42.66,36.01 -75.41,40.15 -46.18,5.83 -89.31,-14.14 -114.38,-51.99 -7.05,2.52 -14.44,4.41 -22.11,5.61 -67.55,10.61 -135.72,16.98 -204.03,19.68 -33.09,1.31 -62.04,-9.42 -86.28,-31.99 -0.68,-0.63 -1.35,-1.27 -2.01,-1.91 -32.43,5.74 -64.64,9.99 -93.38,13.57 -41.82,5.21 -81.42,-11.41 -106.73,-41.92 -19.69,33.53 -54.78,55.62 -95.81,58.07 -75.57,4.53 -178.44,7.38 -249.35,-21.94 -55.67,-23.03 -85.32,-82.77 -69.97,-141.03 10.68,-40.55 21.39,-81.09 32.18,-121.61 -43.89,9.36 -88.1,17.5 -131.46,25.23 -23.91,4.26 -46.5,1.8 -67.52,-7.33 -43,22.58 -90.26,33.65 -139.12,32.8 -4.53,-0.08 -8.39,-0.36 -12.89,-0.92 -19.57,-2.47 -37.73,-7.14 -54.56,-13.7 -10.83,10.16 -21.92,20.03 -33.14,29.64 -37.09,31.79 -86.79,38.06 -130.41,16.64 -61.15,15.67 -125.79,8.36 -188.55,-18.93 -3.17,-1.38 -5.83,-2.67 -8.87,-4.3 -52.53,-28.2 -91.15,-72.47 -116.41,-126.15 -0.86,-1.82 -1.55,-3.39 -2.32,-5.25 -12.66,-30.63 -21.02,-62.77 -24.63,-95.72 -0.3,-2.71 -0.48,-5.03 -0.6,-7.75 -4.93,-111.25 27.7,-204.87 95.75,-268.59 -29.6,5.25 -59.69,8.66 -90.12,10.41 -52.91,3.06 -105.51,4.76 -158.53,4.87 -65,0.14 -118.35,-51.85 -119.88,-116.84 -2.69,-114.31 -4.27,-228.65 -4.27,-343 0,-118.89 1.36,-237.78 3.94,-356.64 1.02,-47.27 27.47,-87.19 70.61,-106.56 73.57,-33.03 162.69,-39.62 242.4,-38.03 88.9,1.78 174.27,21.07 243.69,64.62 11.12,-4.67 23.14,-7.73 35.77,-8.88 70.15,-6.38 140.98,-6.33 210.99,1.75 41.17,4.75 75.25,29.57 92.91,64.22 3.55,-1.89 7.15,-3.74 10.78,-5.54 119.03,-58.93 245.8,-53.61 363.33,3.77 59.53,-7 119.66,-10.15 179.53,-7.44 12.85,0.58 25.15,3.17 36.6,7.44 10.1,-5.02 21.09,-8.69 32.76,-10.78 69.61,-12.44 140.51,-19.09 211.26,-17.05 37.7,1.09 70.95,19.5 92.12,47.56 9.64,-5.46 20.23,-9.66 31.64,-12.47 76.14,-18.74 156.18,-30.81 234.76,-26.84 42.47,2.15 78.47,24.77 98.37,60.9 12.6,-10.92 27.72,-19.32 44.77,-24.43 54.64,-16.37 109.02,-33.61 163.21,-51.42 44.34,-14.58 90.64,-3.07 122.43,29.46 16.59,-16.91 38.39,-28.92 63.39,-33.67 68.81,-13.07 152.36,-26.16 222.32,-18.76 26.45,2.8 50.07,13.91 68.34,30.62 63.86,-48.15 138.44,-79.6 219.07,-98.22 130.38,-30.13 251.64,6.45 330.36,118.01 44.09,62.47 60.42,136.18 66.48,211.15 6.53,80.7 -0.96,162.3 -21.96,240.49 -22.06,82.18 -57.7,163.55 -114.21,228.06 -51.57,58.87 -109.04,103.46 -170.3,130.9z"/>
  <path class="fil9" d="M1147.1 2045.4c1.92,86.44 3.15,173.79 3.49,261.96 2.58,-9.41 5.45,-18.84 8.57,-28.29 13.93,-42.2 34.84,-78.76 61.28,-109.74 26.36,-30.89 58.05,-57.53 97.13,-76.87 85.46,-42.31 175.88,-38.88 267.27,8.86 13.82,7.22 23.41,14.64 30.21,20.09l0.1 -10.18c65.84,-9.1 128.1,-12.81 186.77,-10.15 0.98,41.82 1.96,84.04 2.28,126.34 0.32,42.3 0.98,84.92 1.31,127.63 28.36,-2.34 58.67,-4.67 90.94,-7.33 0,-38.27 0.32,-78.48 0.32,-120.46 0,-41.9 0.65,-85.73 0.98,-131.25 65.84,-11.76 128.1,-16.92 186.77,-15.23 2.28,95.72 3.59,192.65 3.59,290.71 0,94.64 -0.61,190.48 -2.11,287.31 34.31,-128.51 63.79,-237.13 88.49,-325.42 27.57,-98.57 49.87,-172.27 65.84,-220.93 74.31,-18.29 141.13,-26.51 200.13,-23.53 33.57,86.54 66.75,176.88 99.09,270.89 27.85,80.95 55.57,165 82.81,252.19 -0.66,-57.49 -0.89,-117.35 -0.99,-179.51 -0.16,-97.98 0.65,-201.92 2.61,-311.98 55.41,-16.6 110.82,-34.16 166.23,-52.37 25.75,33.28 53.19,70.95 81.81,113.05 28.74,42.26 59.32,88.71 91.59,139.72 -1.96,-33.76 -3.26,-71.71 -3.59,-113.77 -0.32,-42.22 0,-88.63 0.98,-139.31 84.42,-16.04 147,-21.6 187.42,-17.32 2.02,90.61 3.35,177.23 3.93,259.74 15.77,-77.93 45.75,-142 87.01,-192.79 56.03,-68.97 134.66,-113.56 235.98,-136.97 83.52,-19.29 155.32,-0.93 205.67,70.42 29.01,41.12 40.32,94.12 44.98,151.8 5.11,63.18 0.37,130.47 -18.25,199.82 -20.5,76.36 -50.68,136.9 -88.65,180.24 -115.56,131.92 -242.41,156.41 -371.58,73.08 -45.71,-29.49 -75.59,-80.29 -93.22,-143.26 -0.76,-2.73 -1.5,-5.47 -2.2,-8.21 -0.64,58.43 -1.79,114.45 -3.34,167.98 -58.35,25.62 -104.95,38.27 -140.16,38.19 -26.08,-41.58 -55.99,-86.75 -89.64,-135.12 -33.49,-48.15 -71.38,-99.67 -112.78,-154.46 0,48.34 0,96.69 0,144.95 0,48.26 0,96.69 0.33,144.95 -98.11,5 -159.06,4.27 -182.53,-1.85 -0.34,-15.27 -0.65,-30.73 -0.91,-46.37 -33.29,14.49 -92.81,27.33 -178.37,38.15 -6.52,-22.8 -12.71,-44.72 -18.9,-65.75 -40.42,3.71 -90.94,8.3 -151.24,13.86 -4.89,22.07 -9.78,44.32 -14.34,66.63 -90.94,5.48 -152.87,1.37 -186.11,-12.08l8.92 -33.47c-53.73,8.53 -114.07,14.18 -181.02,16.79 -1.63,-47.46 -3.26,-101.2 -4.24,-161.31 -30.64,2.74 -61.6,5.4 -92.57,7.82 -0.33,53.5 -0.98,107.16 -1.96,161.15 -54.43,8.95 -115.71,14.74 -183.83,17.57 -1.31,-31.98 -2.36,-66.84 -3.18,-104.56 -7.96,8.55 -18.09,18.43 -31.37,28.41 -51.78,38.92 -110.44,58.98 -172.43,59.95 -91.58,1.44 -160.51,-24.93 -206.32,-74.53 -25.31,-27.4 -44.18,-62.37 -55.82,-104.74 -0.33,53.48 -0.9,107.29 -1.88,161.39 -54.44,9.27 -115.71,15.23 -183.83,17.97 -1.52,-45.31 -2.82,-95.91 -3.77,-151.74 -6.77,17.56 -16.22,32.48 -28.17,44.9 -15,15.59 -30.09,29.32 -46.94,39.96 -73.45,46.41 -159.13,71.16 -256.52,76.79 -28.13,1.63 -78.88,4.51 -151.89,4.67 -2.61,-110.95 -4.24,-224.4 -4.24,-340.18 0,-115.71 1.3,-233.74 3.91,-354.04 44.33,-19.9 108.22,-29.21 191.01,-27.56 134.62,2.69 224.75,50.31 264.34,143.26 14.87,34.93 13.99,70.01 4.24,102.73 -9.8,32.87 -30.64,64.62 -62.91,95.48 41.61,24.03 70.13,50.88 85.7,80.71 -0.61,-107.41 -0.27,-229.71 1.33,-366.91 65.52,-5.96 127.77,-5.32 186.44,1.45zm2130.4 984.43c-14.69,-46.46 -46.81,-67.86 -96.38,-64.39 -42.31,1.39 -76.49,18.72 -102.73,52.21 -28.89,42.4 -36.24,84.61 -22.14,126.61 22.82,45.97 56.12,66.38 99.9,61.22 52.2,-9.31 90.1,-41.21 113.61,-95.8 11.07,-28.83 13.71,-55.48 7.74,-79.85zm-1329.15 149.5c-15.87,-51.61 -29.19,-93.03 -39.86,-124.23 -11.66,43.99 -22.82,87.58 -33.3,130.87l73.16 -6.64zm-112.14 173.86c-5.19,23.58 -10.28,47.26 -15.28,71.13 -95.98,5.75 -161.5,1.39 -196.47,-13.08 83.35,-316.53 142.01,-526.65 175.81,-630.08 78.64,-18.23 149.07,-24.67 211.25,-19.52 66.21,172.51 130.54,358.68 192.99,558.41 -4.53,-185.59 -4.97,-353.89 -1.27,-505.01 81.68,-27.44 154.06,-45.37 217.23,-53.7 13.71,28.63 34.28,78.27 61.51,148.8 27.23,70.54 47.01,115.81 59.25,135.92 22.24,-32.69 60.43,-121.26 114.79,-265.8 62.97,-4.85 133.69,-1.88 212.33,9.02 2.32,70.86 3.75,147.13 4.31,228.82 42.09,-168.31 154.54,-258.37 337.45,-270.03 87.95,-7.63 160.33,22.88 217.13,91.34 26.84,41.41 42.71,87.68 47.7,138.8 5.19,55.88 -1.47,113.93 -19.78,174.16 -23.41,65.78 -54.55,117.79 -93.54,156.13 -123.2,117 -254.06,137.21 -392.54,60.33 -44.75,-31.79 -77.03,-77.63 -96.85,-137.41 -0.56,56.68 -1.47,115.46 -2.72,176.35 -58.37,9.21 -121.84,15.36 -190.29,18.23 -1.67,-6.93 -2.94,-80.64 -3.72,-221.12 -85.5,166.53 -131.44,250.25 -137.7,251.04l-138.29 -271.35c-0.39,66.57 -0.98,141.67 -1.76,225.48 -61.8,9.71 -125.17,15.75 -190.2,18.33 -0.63,-20.07 -1.22,-39.95 -1.77,-59.64 -34.9,15.26 -98.26,28.7 -189.95,40.12 -6.95,-24.17 -13.62,-47.36 -20.08,-69.65 -42.71,3.67 -95.89,8.32 -159.55,13.97zm-221.29 -1216.26c-16.69,34.03 -33.05,63.84 -48.32,89.28 -16.97,28.26 -33.57,51.16 -49.22,68.73 -29.33,-17.65 -58.94,-29 -88.66,-29.57 -41.06,-0.79 -76.62,23.76 -99.74,73.32 -19.63,42.08 -15.43,84.58 10.11,121.35 20.79,29.93 53.34,42.01 93.22,35.29 32.86,-5.54 65.52,-22.24 99.09,-45.61 22.03,21.28 49.99,61.69 84.11,120.93 -0.62,-36.36 -1.06,-75.11 -1.32,-116.25 -0.61,-93.43 -0.36,-199.22 0.73,-317.47zm1924.31 142.95c-12.84,-49.71 -44.17,-68.85 -91.27,-61.4 -39.96,6.32 -73.78,26.3 -97.46,64.78 -28.49,46.3 -36.83,92.71 -20.53,135.04 18.64,48.42 53.44,68.81 94.52,59.79 49.9,-10.96 86.36,-48.73 107.56,-110.15 11.07,-32.07 13.89,-62.08 7.17,-88.07zm-2908.74 246.15c96.15,7.98 145.5,-14.81 141.13,-67.44 -1.83,-22.09 -17.32,-34.62 -38.79,-39.24 -26.11,-5.61 -60.95,-2.26 -104.95,10.23 -0.65,35.13 0.33,67.36 2.61,96.45zm0.98 -262.51c80.18,7.65 117.33,-10.12 113.1,-52.62 -1.97,-19.79 -11.12,-33.69 -29.34,-39.08 -24.84,-7.35 -54.43,-6.77 -87.03,-0.72 -0.33,31.34 0.65,62.21 3.26,92.42zm1749.35 221.01c-14.99,-48.42 -28.03,-87.18 -38.14,-116.43 -10.76,41.57 -21.19,82.67 -30.96,123.52 22.81,-2.34 45.96,-4.75 69.1,-7.09z"/>
  <g style="clip-path:url(#id0)">
   <image x="388.16" y="1912.63" width="3341.89" height="1628.29" xlink:href="BichanoQueAmo_Images\BichanoQueAmo_ImgID1.png"/>
  </g>
  <path class="fil10" d="M922.2 3816.23c0,1.79 -0.12,3.33 -0.24,4.57 -0.12,1.24 -0.25,2.31 -0.49,3.2 -0.24,0.9 -0.38,1.71 -0.74,2.29 -0.39,0.64 -0.99,1.26 -1.71,1.98 -0.75,0.74 -2.45,1.68 -4.66,2.76 -2.2,1.07 -4.9,2.07 -8.09,2.95 -3.18,0.87 -6.87,1.51 -11.03,1.91 -4.17,0.4 -8.58,0.37 -13.48,-0.07 -9.31,-0.85 -17.92,-3.03 -25.5,-6.67 -7.37,-3.53 -13.91,-8.58 -19.12,-14.75 -5.33,-6.3 -9.45,-13.84 -12.26,-22.7 -2.83,-8.92 -4.17,-19.01 -4.17,-30.48 0,-11.66 1.58,-21.87 4.66,-30.74 3.05,-8.79 7.35,-16.12 13,-21.88 5.63,-5.75 12.27,-9.9 20.1,-12.53 7.85,-2.64 16.43,-3.63 25.74,-2.97 3.92,0.28 7.59,0.93 11.04,1.79 3.67,0.93 6.84,2.01 9.8,3.25 3.17,1.33 5.66,2.64 8.09,4.17 2.47,1.55 4.18,2.89 5.15,3.91 0.99,1.05 1.57,1.85 1.96,2.57 0.34,0.63 0.62,1.54 0.74,2.52 0.13,1.06 0.37,2.24 0.49,3.6 0.12,1.38 0.25,3.02 0.25,5.04 0,2.12 -0.12,3.97 -0.25,5.44 -0.12,1.5 -0.49,2.71 -0.74,3.6 -0.24,0.89 -0.75,1.51 -1.22,1.88 -0.51,0.4 -0.98,0.6 -1.72,0.54 -0.98,-0.08 -2.4,-0.88 -3.92,-2.17 -1.67,-1.42 -3.89,-2.99 -6.38,-4.66 -2.66,-1.79 -5.65,-3.32 -9.31,-4.9 -3.45,-1.48 -7.85,-2.46 -12.75,-2.83 -5.39,-0.41 -10.28,0.4 -14.46,2.28 -4.39,1.98 -8.1,4.8 -11.03,8.74 -2.95,3.95 -5.26,8.78 -6.87,14.56 -1.59,5.71 -2.21,12.34 -2.21,19.74 0,8.08 0.74,15.17 2.45,21.22 1.71,6.05 3.99,11.11 7.11,15.26 3.02,4.02 6.85,7.31 11.03,9.52 4.4,2.32 9.32,3.68 14.71,4.15 4.9,0.43 9.32,0.26 12.99,-0.63 3.44,-0.84 6.61,-1.93 9.07,-3.06 2.69,-1.24 4.86,-2.37 6.38,-3.32 1.68,-1.05 2.94,-1.49 3.92,-1.39 0.74,0.07 1.23,0.25 1.72,0.59 0.5,0.34 0.73,0.92 0.98,1.81 0.24,0.87 0.61,2.08 0.74,3.65 0.12,1.57 0.24,3.65 0.24,6.27zm134.85 21.31c0.86,2.63 1.59,4.79 1.72,6.36 0.12,1.5 -0.22,2.66 -0.98,3.39 -0.71,0.68 -2.21,1.04 -4.17,1.08 -1.96,0.05 -4.66,-0.09 -8.09,-0.35 -3.68,-0.28 -6.38,-0.51 -8.58,-0.8 -1.96,-0.25 -3.42,-0.63 -4.41,-1.01 -1.21,-0.46 -1.88,-0.99 -2.21,-1.53 -0.41,-0.67 -0.93,-1.45 -1.22,-2.35 -3.14,-9.7 -6.13,-19.34 -9.07,-29 -17.41,-1.27 -34.57,-2.52 -51.73,-3.81 -2.94,8.88 -5.74,17.79 -8.58,26.59 -0.34,1.07 -0.74,1.81 -1.22,2.45 -0.5,0.65 -1.23,1.11 -2.21,1.41 -0.98,0.31 -2.45,0.44 -4.41,0.42 -1.72,-0.01 -4.17,-0.17 -7.35,-0.45 -3.19,-0.29 -5.89,-0.66 -7.6,-1.01 -1.96,-0.4 -3.2,-1.01 -3.92,-1.91 -0.74,-0.91 -0.98,-2.12 -0.74,-3.58 0.25,-1.48 0.85,-3.39 1.71,-5.86 6.99,-20 14.23,-40.07 21.09,-60.16 6.87,-20.14 14.37,-40.23 21.33,-60.54 0.39,-1.16 0.82,-2.09 1.47,-2.85 0.58,-0.68 1.23,-1.22 2.7,-1.58 1.24,-0.3 2.94,-0.49 5.15,-0.47 2.21,0.02 4.91,0.16 8.58,0.38 4.17,0.25 7.6,0.52 10.05,0.78 2.45,0.26 4.41,0.65 5.64,1.11 1.46,0.53 2.53,1.11 3.18,2 0.58,0.79 1.01,1.92 1.47,3.35 6.89,21.24 14.22,42.54 21.09,63.83 6.87,21.32 14.34,42.67 21.33,64.12zm-63.01 -107.83c-0.25,-0.02 -0.25,-0.02 -0.25,-0.02 -3.18,9.78 -6.38,19.51 -9.56,29.23 -3.18,9.73 -6.37,19.46 -9.56,29.16 12.75,0.92 25.75,1.81 38.74,2.73 -3.43,-10.22 -6.62,-20.4 -9.81,-30.6 -3.18,-10.17 -6.37,-20.33 -9.56,-30.5zm158.87 -5.35c0,2.14 0,3.93 -0.25,5.47 -0.24,1.51 -0.39,2.72 -0.74,3.58 -0.39,0.96 -0.78,1.51 -1.47,1.96 -0.54,0.35 -0.98,0.63 -1.72,0.59 -11.52,-0.62 -23.05,-1.22 -34.32,-1.91 0,19.1 0,38.23 0,57.31 0,19.1 0,38.23 0,57.31 0,0.7 -0.23,1.36 -0.74,1.93 -0.48,0.53 -1.22,1 -2.21,1.27 -0.97,0.27 -2.45,0.41 -4.41,0.49 -1.72,0.08 -3.92,0.07 -6.62,-0.14 -2.7,-0.21 -4.91,-0.48 -6.86,-0.87 -1.72,-0.34 -3.18,-0.79 -4.17,-1.18 -1.22,-0.48 -2.05,-0.95 -2.45,-1.63 -0.34,-0.57 -0.49,-1.3 -0.49,-1.98 0,-19.03 0,-38.11 0,-57.15 0,-19.03 0,-38.11 0,-57.17 -11.52,-0.73 -23.05,-1.46 -34.32,-2.19 -0.73,-0.05 -1.46,-0.32 -1.96,-0.8 -0.48,-0.46 -0.97,-1.16 -1.23,-2.1 -0.24,-0.89 -0.62,-2.13 -0.74,-3.6 -0.13,-1.57 -0.24,-3.32 -0.24,-5.47 0,-2.16 0.12,-3.99 0.24,-5.51 0.12,-1.53 0.5,-2.76 0.74,-3.6 0.25,-0.91 0.74,-1.53 1.23,-1.91 0.49,-0.38 1.23,-0.54 1.96,-0.5 32.12,1.96 64.24,3.97 96.6,5.7 0.73,0.04 1.19,0.28 1.72,0.66 0.7,0.52 1.06,1.07 1.47,2.1 0.33,0.84 0.49,2.14 0.74,3.7 0.25,1.58 0.25,3.44 0.25,5.63zm164.27 97.11c0,7.61 -1.22,14.19 -3.92,19.81 -2.69,5.59 -6.37,10.15 -11.03,13.76 -4.66,3.6 -10.05,6.22 -16.18,7.87 -6.13,1.65 -12.75,2.21 -19.62,1.77 -4.9,-0.31 -9.31,-0.97 -13.24,-2.05 -4.16,-1.14 -7.83,-2.35 -10.79,-3.65 -3.17,-1.4 -5.86,-2.77 -7.84,-4.12 -2.18,-1.48 -3.75,-2.6 -4.66,-3.7 -0.81,-0.98 -1.59,-2.42 -1.96,-4.31 -0.36,-1.82 -0.49,-4.41 -0.49,-7.82 0,-2.31 0.12,-4.18 0.25,-5.75 0.12,-1.52 0.34,-2.73 0.74,-3.74 0.34,-0.89 0.74,-1.57 1.22,-1.96 0.5,-0.39 0.98,-0.57 1.72,-0.52 0.98,0.07 2.48,0.74 4.41,2.15 1.75,1.27 3.95,2.76 6.87,4.45 2.72,1.58 6.16,3.12 10.3,4.69 3.71,1.4 8.34,2.35 13.48,2.66 3.43,0.21 6.62,0.02 9.31,-0.68 2.7,-0.71 4.95,-1.76 6.87,-3.3 1.76,-1.41 3.18,-3.3 4.17,-5.54 0.98,-2.22 1.47,-4.76 1.47,-7.56 0,-3.27 -0.74,-6.09 -2.45,-8.53 -1.72,-2.45 -3.91,-4.59 -6.62,-6.55 -2.69,-1.95 -5.89,-3.79 -9.32,-5.61 -3.43,-1.81 -7.12,-3.66 -10.79,-5.65 -3.68,-1.99 -7.35,-4.24 -10.79,-6.69 -3.43,-2.45 -6.61,-5.31 -9.31,-8.62 -2.69,-3.28 -4.9,-7.12 -6.62,-11.52 -1.71,-4.38 -2.45,-9.56 -2.45,-15.55 0,-6.85 1.33,-12.79 3.68,-17.92 2.3,-5.04 5.64,-9.24 9.81,-12.46 4.17,-3.23 9.06,-5.59 14.46,-7 5.63,-1.47 11.77,-1.91 18.14,-1.63 3.18,0.14 6.37,0.54 9.56,1.18 3.42,0.68 6.4,1.41 9.32,2.45 2.72,0.96 5.17,2.11 7.35,3.3 2.23,1.21 3.67,2.22 4.41,3.02 0.72,0.76 1.23,1.41 1.47,1.93 0.25,0.54 0.37,1.24 0.49,2.1 0.12,0.87 0.49,1.93 0.49,3.28 0,1.3 0,2.87 0,4.83 0,2.14 0.12,3.96 0,5.44 -0.12,1.5 -0.24,2.71 -0.49,3.67 -0.24,0.94 -0.75,1.61 -1.22,2.03 -0.5,0.43 -0.98,0.67 -1.72,0.63 -0.74,-0.04 -2.17,-0.68 -3.68,-1.72 -1.68,-1.16 -3.92,-2.33 -6.37,-3.67 -2.45,-1.34 -5.39,-2.6 -8.58,-3.7 -3.42,-1.18 -6.87,-1.78 -10.79,-1.96 -2.95,-0.13 -5.64,0.1 -8.09,0.78 -2.2,0.61 -3.98,1.57 -5.64,2.9 -1.54,1.24 -2.47,2.94 -3.19,4.78 -0.77,1.98 -1.22,3.91 -1.22,6.05 0,3.18 0.74,5.98 2.45,8.41 1.72,2.43 3.87,4.71 6.62,6.62 2.89,2.01 6.11,3.86 9.56,5.58 3.65,1.82 7.37,3.6 11.03,5.54 3.69,1.95 7.15,4.06 10.79,6.57 3.47,2.39 6.68,5.25 9.56,8.6 2.76,3.2 4.89,7.05 6.62,11.45 1.7,4.34 2.45,9.4 2.45,15.19zm51.73 41.88c0,0.71 -0.24,1.4 -0.74,1.98 -0.48,0.57 -1.23,1.01 -2.45,1.34 -0.99,0.27 -2.45,0.54 -4.17,0.68 -1.71,0.14 -3.92,0.12 -6.87,-0.02 -2.7,-0.13 -4.91,-0.33 -6.62,-0.63 -1.72,-0.31 -3.21,-0.67 -4.42,-1.13 -1,-0.38 -1.73,-0.94 -2.21,-1.53 -0.5,-0.63 -0.74,-1.37 -0.74,-2.07 0,-22.75 0,-45.53 0,-68.31 0,-22.75 0,-45.55 0,-68.33 0,-0.71 0.24,-1.39 0.74,-1.98 0.49,-0.57 1.24,-0.99 2.45,-1.37 1,-0.31 2.45,-0.54 4.17,-0.71 1.71,-0.16 3.92,-0.21 6.62,-0.1 2.95,0.12 5.15,0.33 6.87,0.64 1.72,0.3 3.17,0.65 4.17,1.04 1.21,0.46 1.98,0.97 2.45,1.55 0.51,0.62 0.74,1.34 0.74,2.05 0,22.85 0,45.67 0,68.47 0,22.8 0,45.62 0,68.42zm123.57 -124.42c0,2.19 -0.12,4.01 -0.25,5.58 -0.12,1.57 -0.6,2.73 -0.98,3.67 -0.36,0.9 -0.74,1.63 -1.22,2.05 -0.49,0.42 -1.23,0.65 -1.72,0.64 -11.52,-0.36 -23.05,-0.73 -34.32,-1.08 0,19.57 0,39.15 0,58.7 0,19.55 0,39.15 0,58.7 0,0.71 -0.25,1.39 -0.74,1.98 -0.49,0.59 -1.23,1.03 -2.45,1.39 -0.99,0.3 -2.45,0.57 -4.17,0.73 -1.71,0.17 -4.17,0.19 -6.87,0.1 -2.7,-0.1 -4.9,-0.29 -6.62,-0.59 -1.71,-0.3 -3.21,-0.6 -4.41,-1.03 -1,-0.37 -1.73,-0.95 -2.21,-1.56 -0.51,-0.64 -0.74,-1.37 -0.74,-2.07 0,-19.53 0,-39.08 0,-58.6 0,-19.53 0,-39.1 0,-58.63 -11.52,-0.48 -23.05,-0.97 -34.32,-1.44 -0.73,-0.03 -1.22,-0.29 -1.71,-0.75 -0.49,-0.45 -1.08,-1.11 -1.47,-2.14 -0.34,-0.89 -0.5,-2.14 -0.74,-3.7 -0.25,-1.58 -0.25,-3.39 -0.25,-5.58 0,-2.24 0,-4.12 0.25,-5.7 0.24,-1.56 0.39,-2.86 0.74,-3.72 0.39,-0.96 0.98,-1.55 1.47,-1.95 0.49,-0.4 0.98,-0.57 1.71,-0.54 32.12,1.31 64.48,2.3 96.84,3.27 0.49,0.01 1.22,0.24 1.72,0.68 0.48,0.43 0.87,1.15 1.22,2.07 0.38,0.97 0.86,2.18 0.98,3.79 0.12,1.57 0.25,3.51 0.25,5.75zm112.53 3.21c0,2.21 -0,4.05 -0.25,5.6 -0.24,1.56 -0.39,2.84 -0.74,3.7 -0.39,1.01 -0.99,1.64 -1.47,2.07 -0.5,0.44 -0.98,0.68 -1.71,0.66 -11.52,-0.24 -23.05,-0.5 -34.32,-0.87 0,19.67 0,39.36 0,59 0,19.65 0,39.34 0,58.98 0,0.71 -0.25,1.41 -0.74,1.98 -0.5,0.58 -1.22,1.08 -2.21,1.41 -0.97,0.33 -2.45,0.56 -4.41,0.73 -1.72,0.15 -3.92,0.19 -6.62,0.09 -2.7,-0.09 -4.91,-0.25 -6.86,-0.57 -1.72,-0.27 -3.17,-0.71 -4.17,-1.08 -1.21,-0.45 -1.99,-0.94 -2.45,-1.53 -0.52,-0.66 -0.49,-1.37 -0.49,-2.1 0,-19.6 0,-39.27 0,-58.89 0,-19.62 0,-39.27 0,-58.91 -11.52,-0.35 -23.05,-0.74 -34.57,-1.08 -0.49,-0.01 -1.22,-0.26 -1.71,-0.73 -0.49,-0.45 -0.87,-1.19 -1.23,-2.12 -0.38,-0.99 -0.62,-2.17 -0.74,-3.72 -0.12,-1.59 -0.24,-3.42 -0.24,-5.63 0,-2.24 0.12,-4.13 0.24,-5.72 0.12,-1.57 0.37,-2.79 0.74,-3.72 0.37,-0.92 0.73,-1.61 1.23,-2.03 0.48,-0.4 1.23,-0.58 1.71,-0.56 32.12,0.95 64.48,1.92 96.85,2.71 0.74,0.01 1.22,0.24 1.71,0.68 0.48,0.43 1.08,1.04 1.47,2.07 0.34,0.89 0.49,2.19 0.74,3.79 0.25,1.6 0.25,3.51 0.25,5.77zm100.03 125c0,2.19 -0.12,4.03 -0.25,5.54 -0.12,1.47 -0.6,2.59 -0.98,3.53 -0.36,0.88 -0.74,1.57 -1.23,1.98 -0.5,0.42 -1.22,0.58 -1.71,0.57 -23.05,-0.55 -46.1,-1.09 -68.9,-1.65 -2.45,-0.06 -4.36,-0.91 -5.89,-2.35 -1.66,-1.57 -2.45,-3.93 -2.45,-7.28 0,-21.27 0,-42.57 0,-63.86 0,-21.29 0,-42.61 0,-63.9 0,-3.35 0.8,-5.68 2.45,-7.16 1.53,-1.37 3.44,-2.14 5.89,-2.1 22.8,0.45 45.6,0.93 68.65,1.39 0.49,0.01 1.07,0.11 1.71,0.64 0.36,0.3 0.85,1.01 1.23,2 0.36,0.93 0.49,2.17 0.74,3.65 0.25,1.5 0.24,3.37 0.24,5.65 0,2.14 0,3.91 -0.24,5.42 -0.24,1.49 -0.39,2.72 -0.74,3.58 -0.39,0.96 -0.84,1.65 -1.23,1.98 -0.63,0.55 -1.22,0.57 -1.71,0.57 -16.43,-0.34 -32.85,-0.68 -49.04,-1.04 0,11.92 0,23.84 0,35.76 13.73,0.31 27.46,0.63 41.19,0.92 0.74,0.01 1.22,0.22 1.72,0.66 0.48,0.43 1.08,1.01 1.47,1.95 0.34,0.83 0.49,2.05 0.74,3.53 0.25,1.49 0.25,3.28 0.25,5.35 0,2.22 0,4.05 -0.25,5.49 -0.24,1.41 -0.4,2.63 -0.74,3.42 -0.4,0.94 -0.99,1.49 -1.47,1.84 -0.5,0.36 -0.98,0.56 -1.72,0.54 -13.73,-0.31 -27.46,-0.61 -41.19,-0.94 0,13.78 0,27.56 0,41.32 16.43,0.4 32.86,0.77 49.28,1.18 0.73,0.02 1.23,0.23 1.71,0.66 0.5,0.44 0.87,1.14 1.23,2.05 0.38,0.95 0.86,2.08 0.98,3.6 0.12,1.48 0.25,3.32 0.25,5.54zm128.96 9.85c0,0.8 -0.08,1.45 -0.49,2.1 -0.33,0.52 -0.98,1.02 -1.96,1.39 -0.97,0.37 -2.45,0.58 -4.66,0.73 -1.96,0.13 -4.9,0.15 -8.33,0.12 -2.94,-0.03 -5.39,-0.12 -7.11,-0.31 -1.71,-0.19 -3.18,-0.48 -4.17,-0.92 -0.97,-0.43 -1.71,-0.95 -2.21,-1.62 -0.49,-0.67 -0.67,-1.46 -0.98,-2.31 -4.1,-11.05 -8.3,-22.09 -12.5,-33.12 -1.43,-3.76 -3.05,-7.06 -4.41,-9.99 -1.34,-2.87 -2.94,-5.35 -4.66,-7.32 -1.71,-1.96 -3.69,-3.38 -6.13,-4.43 -2.22,-0.95 -4.91,-1.54 -7.84,-1.58 -2.95,-0.04 -5.89,-0.07 -8.58,-0.12 0,9.38 0,18.77 0,28.13 0,9.35 0,18.72 0,28.1 0,0.71 -0.25,1.41 -0.74,2 -0.49,0.59 -1.24,1.07 -2.45,1.46 -1,0.32 -2.45,0.64 -4.17,0.85 -1.72,0.21 -3.92,0.32 -6.62,0.28 -2.7,-0.04 -4.91,-0.17 -6.87,-0.45 -1.72,-0.24 -3.18,-0.61 -4.17,-0.94 -1.22,-0.42 -1.88,-0.96 -2.21,-1.51 -0.42,-0.69 -0.74,-1.34 -0.74,-2.05 0,-22.26 0,-44.49 0,-66.75 0,-22.26 0,-44.52 0,-66.78 0,-3.37 0.8,-5.7 2.45,-7.21 1.53,-1.39 3.43,-2.17 5.89,-2.15 11.77,0.14 23.54,0.25 35.55,0.38 3.68,0.04 6.62,0.17 8.83,0.33 2.45,0.19 4.42,0.32 6.37,0.61 5.65,0.84 10.54,2.45 14.96,4.52 4.41,2.07 8.27,4.82 11.28,8.1 3.12,3.41 5.39,7.26 7.11,11.78 1.71,4.52 2.45,9.68 2.45,15.55 0,4.9 -0.63,9.42 -1.71,13.4 -1.12,4.11 -2.87,7.71 -5.15,10.81 -2.38,3.23 -5.21,5.82 -8.58,8.17 -3.25,2.27 -7.11,4.15 -11.28,5.58 1.96,1.06 3.97,2.32 5.88,3.91 1.77,1.47 3.5,3.37 5.15,5.63 1.54,2.1 2.94,4.65 4.42,7.45 1.46,2.78 2.78,5.88 4.17,9.45 3.76,9.69 7.56,19.49 11.52,29.21 1.19,2.91 1.96,4.99 2.21,6.36 0.24,1.34 0.49,2.38 0.49,3.16zm-36.04 -100.39c0,-4.83 -1.08,-8.91 -3.19,-12.27 -2.07,-3.3 -5.38,-5.83 -10.05,-7.21 -1.46,-0.43 -2.95,-0.67 -4.9,-0.94 -1.72,-0.24 -4.17,-0.39 -7.36,-0.43 -4.17,-0.04 -8.33,-0.09 -12.5,-0.14 0,13.9 0,27.77 0,41.64 4.66,0.07 9.32,0.14 14.22,0.19 3.92,0.04 7.34,-0.43 10.3,-1.44 2.93,-1 5.43,-2.34 7.6,-4.24 2,-1.75 3.44,-4 4.41,-6.55 0.99,-2.57 1.47,-5.44 1.47,-8.62zm204.23 93.25c0,2.19 0,4.03 -0.24,5.54 -0.24,1.49 -0.39,2.72 -0.74,3.58 -0.39,0.96 -0.98,1.6 -1.47,2.03 -0.49,0.42 -0.98,0.61 -1.72,0.61 -23.05,-0.02 -46.09,-0.05 -68.9,-0.1 -2.2,-0 -4.22,-0.68 -5.88,-2.21 -1.52,-1.41 -2.45,-3.89 -2.45,-7.23 0,-21.39 0,-42.78 0,-64.16 0,-21.41 0,-42.82 0,-64.24 0,-3.34 0.93,-5.8 2.45,-7.21 1.67,-1.54 3.68,-2.22 5.88,-2.21 22.8,0.04 45.6,0.07 68.65,0.12 0.49,0 1.22,0.2 1.72,0.59 0.48,0.38 0.84,0.99 1.23,1.98 0.35,0.91 0.49,2.17 0.73,3.65 0.25,1.51 0.25,3.37 0.25,5.65 0,2.14 0,3.91 -0.25,5.44 -0.24,1.49 -0.39,2.72 -0.73,3.58 -0.39,0.99 -0.74,1.58 -1.23,2 -0.49,0.42 -1.23,0.63 -1.72,0.63 -16.43,-0.05 -32.85,-0.07 -49.03,-0.09 0,11.96 0,23.93 0,35.87 13.73,0.02 27.46,0.05 41.19,0.07 0.73,0 1.19,0.24 1.72,0.61 0.7,0.5 1.07,1.01 1.47,1.95 0.34,0.82 0.49,2.03 0.74,3.54 0.24,1.48 0.24,3.27 0.24,5.35 0,2.21 0,4.05 -0.24,5.49 -0.25,1.44 -0.39,2.63 -0.74,3.46 -0.39,0.94 -0.77,1.44 -1.47,1.86 -0.54,0.33 -0.99,0.59 -1.72,0.59 -13.73,-0.02 -27.46,-0.05 -41.19,-0.07 0,13.85 0,27.68 0,41.48 16.43,0.02 32.85,0.05 49.28,0.07 0.74,0 1.22,0.21 1.72,0.64 0.49,0.42 1.08,1.01 1.47,2 0.34,0.86 0.49,2.09 0.74,3.58 0.25,1.51 0.24,3.32 0.24,5.56zm185.35 -91.89c0,8.27 -1.23,15.57 -3.68,21.96 -2.45,6.4 -5.9,11.76 -10.54,16.16 -4.67,4.42 -10.3,7.78 -16.92,10.11 -6.62,2.33 -14.71,3.54 -23.78,3.63 -3.92,0.03 -7.85,0.05 -11.52,0.1 0,15.64 0,31.28 0,46.92 0,0.75 -0.15,1.46 -0.49,2.03 -0.4,0.65 -1.47,1.12 -2.45,1.51 -0.99,0.39 -2.45,0.69 -4.17,0.94 -1.71,0.25 -4.17,0.39 -6.87,0.42 -2.7,0.04 -4.9,-0.08 -6.62,-0.31 -1.71,-0.22 -3.21,-0.45 -4.41,-0.85 -1,-0.33 -1.81,-0.81 -2.21,-1.46 -0.34,-0.56 -0.49,-1.32 -0.49,-2.02 0,-22.07 0,-44.14 0,-66.19 0,-22.05 0,-44.12 0,-66.19 0,-3.56 0.68,-6.3 2.45,-8.03 1.91,-1.87 4.17,-2.72 6.87,-2.73 10.79,-0.06 21.58,-0.17 32.61,-0.24 3.19,-0.02 6.38,0.06 9.32,0.31 2.94,0.25 6.38,0.79 10.54,1.65 3.93,0.81 8.11,2.36 12.51,4.73 4.19,2.27 7.86,5.24 10.79,8.81 2.96,3.61 5.04,7.81 6.62,12.61 1.6,4.84 2.45,10.2 2.45,16.16zm-29.18 2.38c0,-5.16 -0.87,-9.45 -2.45,-12.74 -1.61,-3.35 -3.93,-5.76 -6.38,-7.33 -2.46,-1.57 -5.15,-2.55 -7.85,-2.97 -2.7,-0.41 -5.64,-0.58 -8.58,-0.57 -4.17,0.03 -8.09,0.05 -12.01,0.1 0,8.34 0,16.7 0,25.04 0,8.32 0,16.68 0,24.99 4.17,-0.02 8.34,-0.06 12.75,-0.09 4.41,-0.04 8.1,-0.71 11.28,-2.05 2.95,-1.25 5.38,-3.15 7.35,-5.49 1.94,-2.3 3.44,-5.11 4.41,-8.31 0.98,-3.23 1.47,-6.76 1.47,-10.58zm176.53 22.12c0,12.11 -1.35,23 -4.17,32.62 -2.82,9.65 -7.12,17.82 -12.75,24.59 -5.65,6.8 -12.49,12.05 -20.59,15.69 -8.32,3.73 -17.9,5.61 -28.69,5.82 -10.79,0.21 -20.09,-1.13 -27.95,-3.91 -8.07,-2.85 -14.77,-7.16 -20.11,-13.26 -5.2,-5.96 -9.07,-13.71 -11.77,-23.13 -2.69,-9.38 -3.92,-20.54 -3.92,-33.47 0,-11.85 1.34,-22.53 4.17,-32.1 2.81,-9.5 7.03,-17.73 12.5,-24.43 5.56,-6.8 12.52,-11.93 20.84,-15.59 8.35,-3.68 17.9,-5.66 28.69,-5.82 10.54,-0.16 19.62,1.14 27.71,3.98 7.85,2.76 14.45,7.22 19.86,13.26 5.38,6 9.32,13.62 12.01,22.87 2.7,9.28 4.17,20.23 4.17,32.88zm-29.42 2.03c0,-7.68 -0.61,-14.65 -1.72,-20.94 -1.1,-6.22 -2.95,-11.66 -5.64,-16.06 -2.71,-4.44 -6.4,-7.82 -11.04,-10.25 -4.44,-2.33 -10.05,-3.5 -16.92,-3.39 -6.87,0.11 -12.53,1.56 -17.16,4.43 -4.44,2.76 -8.25,6.65 -11.03,11.24 -2.85,4.69 -5.03,10.04 -6.13,16.23 -1.1,6.2 -1.72,12.74 -1.72,19.62 0,8.01 0.62,15.21 1.72,21.58 1.1,6.36 3.18,11.76 5.88,16.28 2.69,4.48 6.15,7.81 10.79,10.15 4.43,2.25 10.05,3.38 16.92,3.25 6.87,-0.13 12.72,-1.68 17.16,-4.43 4.62,-2.86 8.43,-6.53 11.28,-11.3 2.79,-4.68 4.66,-10.23 5.88,-16.47 1.22,-6.24 1.72,-12.88 1.72,-19.93zm157.16 65.27c0,0.8 0,1.49 -0.24,2.07 -0.24,0.57 -0.97,1.12 -1.96,1.48 -1.21,0.44 -2.7,0.69 -4.66,0.9 -2.21,0.24 -4.9,0.43 -8.58,0.52 -2.94,0.07 -5.15,0.11 -7.11,0 -1.72,-0.1 -3.19,-0.34 -4.17,-0.73 -0.99,-0.39 -1.82,-0.83 -2.21,-1.51 -0.35,-0.61 -0.66,-1.44 -0.98,-2.29 -4.09,-10.77 -8.09,-21.58 -12.26,-32.27 -1.47,-3.78 -2.94,-6.93 -4.41,-9.75 -1.47,-2.83 -3.01,-5.09 -4.91,-7.02 -1.78,-1.82 -3.67,-3.27 -5.88,-4.19 -2.2,-0.91 -4.91,-1.32 -7.84,-1.25 -2.95,0.07 -5.89,0.17 -8.83,0.26 0,9.3 0,18.61 0,27.92 0,9.28 0,18.58 0,27.89 0,0.71 -0.25,1.41 -0.74,2 -0.5,0.61 -1.21,1.16 -2.2,1.58 -0.97,0.4 -2.45,0.72 -4.17,1.01 -1.96,0.32 -4.17,0.48 -6.87,0.56 -2.7,0.08 -4.9,0 -6.62,-0.17 -1.96,-0.19 -3.44,-0.41 -4.41,-0.75 -0.98,-0.34 -1.73,-0.83 -2.21,-1.39 -0.51,-0.59 -0.74,-1.3 -0.74,-2.02 0,-22.12 0,-44.24 0,-66.35 0,-22.12 0,-44.26 0,-66.4 0,-3.32 0.93,-5.8 2.45,-7.23 1.66,-1.56 3.68,-2.3 5.88,-2.35 11.77,-0.3 23.54,-0.57 35.55,-0.87 3.68,-0.1 6.62,-0.07 9.07,0.02 2.21,0.09 4.42,0.14 6.37,0.38 5.41,0.64 10.31,1.99 14.96,3.93 4.43,1.85 8.02,4.51 11.04,7.65 3.11,3.25 5.53,7.01 7.11,11.38 1.61,4.44 2.45,9.49 2.45,15.29 0,4.88 -0.49,9.31 -1.72,13.35 -1.22,4.05 -2.94,7.68 -5.15,10.88 -2.21,3.2 -5.13,6.05 -8.34,8.39 -3.42,2.49 -7.11,4.38 -11.52,5.98 2.21,0.99 4.17,2.22 5.89,3.65 1.71,1.42 3.5,3.18 5.15,5.37 1.54,2.04 3.09,4.52 4.41,7.16 1.38,2.76 2.82,5.82 4.17,9.21 3.8,9.52 7.97,18.91 11.77,28.43 1.1,2.76 1.6,4.86 1.96,6.17 0.37,1.36 0.49,2.36 0.49,3.11zm-36.04 -97.92c0,-4.81 -0.9,-8.91 -2.94,-12.06 -2.13,-3.28 -5.64,-5.49 -10.3,-6.74 -1.23,-0.33 -2.94,-0.61 -4.66,-0.78 -1.96,-0.2 -4.41,-0.24 -7.6,-0.16 -4.17,0.11 -8.34,0.21 -12.51,0.33 0,13.78 0,27.59 0,41.36 4.66,-0.14 9.32,-0.27 14.22,-0.4 3.92,-0.1 7.36,-0.67 10.54,-1.81 2.95,-1.06 5.39,-2.6 7.35,-4.47 1.96,-1.87 3.44,-4.12 4.42,-6.67 0.98,-2.57 1.47,-5.44 1.47,-8.6zm235.62 83.17c0.85,2.55 1.22,4.71 1.47,6.26 0.24,1.53 0.01,2.74 -0.73,3.56 -0.73,0.81 -2.21,1.37 -4.17,1.65 -1.96,0.28 -4.66,0.49 -8.09,0.63 -3.68,0.16 -6.62,0.24 -8.58,0.19 -1.96,-0.05 -3.45,-0.16 -4.66,-0.5 -1,-0.27 -1.71,-0.74 -2.21,-1.32 -0.49,-0.57 -0.68,-1.38 -0.98,-2.28 -3.14,-9.53 -6.13,-19.1 -9.07,-28.67 -17.41,0.66 -34.57,1.3 -51.73,1.98 -2.94,9.56 -5.95,19.08 -8.82,28.67 -0.31,1.04 -0.5,1.92 -0.98,2.64 -0.5,0.75 -1.23,1.32 -2.21,1.79 -0.98,0.47 -2.46,0.75 -4.42,0.99 -1.96,0.24 -4.41,0.43 -7.35,0.54 -3.18,0.12 -5.88,0.1 -7.6,-0.05 -1.96,-0.16 -3.2,-0.62 -3.92,-1.44 -0.75,-0.84 -0.98,-2.09 -0.74,-3.65 0.25,-1.58 0.64,-3.68 1.47,-6.34 6.77,-21.72 14.22,-43.44 21.09,-65.11 6.87,-21.67 14.16,-43.36 21.33,-65.01 0.43,-1.29 0.98,-2.29 1.47,-3.09 0.49,-0.8 1.47,-1.43 2.7,-1.88 1.23,-0.46 2.94,-0.78 5.15,-0.97 2.21,-0.19 5.15,-0.33 8.83,-0.45 4.17,-0.14 7.35,-0.16 9.81,-0.14 2.7,0.02 4.65,0.26 5.88,0.59 1.46,0.4 2.38,1.02 2.94,1.75 0.67,0.86 1.03,1.96 1.47,3.3 6.92,21.19 14.22,42.21 21.33,63.29 7.11,21.06 14.34,42.03 21.33,63.06zm-63.26 -103.64c0,0 0,0 0,0 -3.18,10.36 -6.38,20.73 -9.56,31.09 -3.19,10.38 -6.37,20.75 -9.56,31.14 12.75,-0.47 25.5,-0.94 38.49,-1.44 -3.43,-10.1 -6.62,-20.23 -9.81,-30.38 -3.18,-10.13 -6.38,-20.26 -9.56,-30.41zm112.78 108.11c0,0.71 -0.23,1.43 -0.74,2.05 -0.48,0.59 -1.22,1.12 -2.21,1.53 -0.97,0.41 -2.45,0.78 -4.17,1.08 -1.96,0.34 -4.17,0.55 -6.87,0.68 -2.7,0.13 -4.91,0.15 -6.87,0 -1.72,-0.13 -3.18,-0.41 -4.17,-0.68 -1.22,-0.34 -1.97,-0.75 -2.45,-1.3 -0.5,-0.58 -0.49,-1.27 -0.49,-1.98 0,-22.66 0,-45.32 0,-67.98 0,-22.64 0,-45.32 0,-67.98 0,-0.71 -0.01,-1.39 0.49,-2.02 0.48,-0.62 1.24,-1.09 2.45,-1.56 1,-0.38 2.45,-0.77 4.17,-1.06 1.96,-0.33 4.17,-0.51 6.87,-0.61 2.7,-0.11 4.9,-0.07 6.87,0.1 1.71,0.14 3.18,0.35 4.17,0.68 0.98,0.33 1.72,0.8 2.21,1.37 0.5,0.58 0.74,1.25 0.74,1.96 0,22.63 0,45.27 0,67.88 0,22.61 0,45.23 0,67.84zm-7.35 -178.16c0.97,-1.19 1.76,-2.02 2.7,-2.78 0.78,-0.63 1.96,-1.26 3.19,-1.67 1.22,-0.41 2.7,-0.74 4.41,-0.9 1.96,-0.17 3.92,-0.33 6.62,-0.42 3.19,-0.12 5.88,0.06 7.6,0.42 1.71,0.37 2.95,0.87 3.68,1.56 0.74,0.7 0.89,1.44 0.49,2.4 -0.34,0.84 -0.97,1.83 -1.96,2.8 -7.83,7.71 -15.69,15.4 -23.54,23.08 -0.74,0.72 -1.48,1.31 -2.21,1.84 -0.74,0.53 -1.7,0.99 -2.7,1.34 -1.21,0.43 -2.45,0.67 -3.92,0.87 -1.47,0.2 -3.19,0.35 -5.39,0.43 -2.45,0.08 -4.42,0.08 -5.88,-0.1 -1.47,-0.18 -2.38,-0.56 -2.94,-0.96 -0.68,-0.5 -0.87,-0.99 -0.74,-1.79 0.12,-0.75 0.54,-1.58 1.47,-2.71 6.42,-7.76 12.74,-15.6 19.12,-23.41zm172.11 168.46c-0.38,1.21 -0.82,2.21 -1.47,3.06 -0.58,0.76 -1.46,1.45 -2.7,1.93 -1.22,0.48 -2.94,0.83 -5.15,1.08 -2.21,0.25 -5.15,0.46 -8.58,0.66 -2.94,0.18 -5.39,0.31 -7.35,0.38 -1.96,0.07 -3.68,0.07 -5.15,0 -1.47,-0.07 -2.46,-0.21 -3.43,-0.45 -0.99,-0.24 -1.71,-0.6 -2.21,-1.01 -0.48,-0.39 -1.07,-0.85 -1.47,-1.48 -0.35,-0.56 -0.44,-1.41 -0.74,-2.31 -6.81,-20.7 -13.98,-41.36 -20.59,-62.07 -6.62,-20.75 -13.82,-41.52 -20.35,-62.37 -0.83,-2.64 -1.35,-4.72 -1.47,-6.24 -0.12,-1.54 -0,-2.72 0.98,-3.53 0.97,-0.81 2.45,-1.37 4.41,-1.63 2.21,-0.29 5.15,-0.47 9.07,-0.64 3.19,-0.14 5.88,-0.21 7.6,-0.14 1.96,0.07 3.2,0.26 4.17,0.57 0.99,0.31 1.82,0.81 2.21,1.55 0.36,0.69 0.66,1.63 0.98,2.73 5.31,18.09 11.28,36.11 16.67,54.13 5.39,18.04 11.28,36.01 16.92,54.01 0,0 0,0 0,0 5.39,-18.49 10.78,-36.96 16.18,-55.45 5.39,-18.45 11.14,-36.86 16.67,-55.35 0.36,-1.2 0.64,-2.3 0.98,-3.04 0.39,-0.85 1.22,-1.45 2.21,-1.93 0.97,-0.48 2.45,-0.81 4.41,-1.06 1.96,-0.25 4.66,-0.48 7.84,-0.61 3.43,-0.14 5.88,-0.15 7.6,-0.02 1.96,0.15 3.27,0.54 3.92,1.39 0.58,0.76 0.73,2.03 0.49,3.56 -0.25,1.55 -0.65,3.63 -1.47,6.19 -6.78,21.34 -13.74,42.63 -20.59,63.95 -6.87,21.36 -13.86,42.69 -20.6,64.14zm163.53 -15.69c0.86,2.48 1.23,4.57 1.47,6.08 0.25,1.51 0.01,2.67 -0.74,3.48 -0.72,0.79 -2.2,1.38 -4.17,1.7 -1.96,0.32 -4.66,0.57 -8.09,0.8 -3.67,0.24 -6.62,0.39 -8.58,0.4 -1.96,0.01 -3.44,-0.07 -4.66,-0.36 -0.99,-0.23 -1.69,-0.68 -2.21,-1.25 -0.46,-0.52 -0.69,-1.31 -0.98,-2.17 -3.14,-9.23 -6.13,-18.47 -9.07,-27.73 -17.41,1.11 -34.57,2.22 -51.73,3.21 -2.94,9.37 -5.95,18.73 -8.83,28.15 -0.31,1.02 -0.49,1.91 -0.98,2.61 -0.49,0.71 -1.22,1.3 -2.21,1.77 -0.98,0.47 -2.45,0.79 -4.41,1.06 -1.96,0.27 -4.41,0.5 -7.35,0.66 -3.43,0.19 -5.88,0.23 -7.6,0.12 -1.96,-0.13 -3.2,-0.56 -3.92,-1.34 -0.75,-0.81 -0.97,-2.03 -0.73,-3.53 0.25,-1.55 0.65,-3.63 1.47,-6.22 6.78,-21.37 14.22,-42.68 21.09,-63.98 6.86,-21.27 14.17,-42.56 21.33,-63.79 0.43,-1.29 0.99,-2.26 1.47,-3.04 0.5,-0.8 1.47,-1.44 2.7,-1.91 1.22,-0.47 2.94,-0.83 5.15,-1.06 2.21,-0.24 5.15,-0.42 8.83,-0.61 4.17,-0.23 7.36,-0.38 9.81,-0.4 2.7,-0.02 4.41,0.14 5.88,0.47 1.47,0.33 2.38,0.92 2.94,1.63 0.67,0.83 1.03,1.86 1.47,3.18 6.91,20.49 14.22,40.8 21.33,61.15 7.1,20.33 14.34,40.6 21.33,60.91zm-63.25 -99.45c0,0 0,0 0,0 -3.19,10.2 -6.38,20.38 -9.56,30.57 -3.19,10.2 -6.38,20.38 -9.56,30.57 12.75,-0.75 25.5,-1.53 38.49,-2.33 -3.43,-9.78 -6.63,-19.57 -9.81,-29.37 -3.19,-9.82 -6.37,-19.62 -9.56,-29.44zm112.78 102.93c0,0.68 -0.25,1.37 -0.74,1.98 -0.49,0.61 -1.22,1.14 -2.21,1.55 -0.97,0.41 -2.45,0.78 -4.41,1.16 -1.72,0.33 -3.93,0.58 -6.62,0.75 -2.7,0.18 -4.91,0.24 -6.87,0.14 -1.72,-0.09 -3.17,-0.36 -4.17,-0.61 -1.21,-0.31 -1.97,-0.7 -2.45,-1.22 -0.5,-0.56 -0.74,-1.22 -0.74,-1.91 0,-22.05 0,-44.1 0,-66.14 0,-22.05 0,-44.12 0,-66.19 0,-0.68 0.23,-1.35 0.74,-1.98 0.47,-0.58 1.24,-1.07 2.45,-1.53 1,-0.38 2.45,-0.78 4.17,-1.08 1.96,-0.34 4.17,-0.56 6.87,-0.71 2.7,-0.14 4.9,-0.14 6.62,-0.02 1.96,0.14 3.43,0.3 4.41,0.61 0.98,0.32 1.73,0.74 2.21,1.27 0.5,0.56 0.74,1.22 0.74,1.91 0,22 0,44.02 0,66.02 0,22 0,44 0,66zm62.03 -16.04c0,6.62 -1.24,11.23 -3.43,13.66 -2.22,2.46 -6.38,3.9 -12.5,4.36 -5.88,0.44 -10.05,-0.38 -12.26,-2.47 -2.21,-2.1 -3.43,-6.31 -3.43,-12.65 0,-6.71 1.18,-11.42 3.43,-13.81 2.41,-2.54 6.62,-3.92 12.51,-4.34 5.88,-0.41 10.06,0.42 12.26,2.5 2.21,2.09 3.43,6.36 3.43,12.74zm60.31 -4.38c0,6.57 -1.05,11.07 -3.43,13.59 -2.28,2.41 -6.37,3.92 -12.26,4.36 -6.13,0.46 -10.11,-0.36 -12.51,-2.47 -2.27,-2.01 -3.18,-6.31 -3.18,-12.6 0,-6.67 1.06,-11.21 3.43,-13.71 2.28,-2.4 6.38,-3.9 12.5,-4.33 5.88,-0.42 9.75,0.48 12.01,2.49 2.4,2.14 3.43,6.31 3.43,12.67zm60.56 -4.4c0,6.55 -1.3,11.05 -3.68,13.54 -2.28,2.39 -6.37,3.9 -12.26,4.34 -5.88,0.43 -9.99,-0.47 -12.26,-2.47 -2.39,-2.11 -3.43,-6.24 -3.43,-12.51 0,-6.64 1.24,-11.22 3.43,-13.64 2.22,-2.46 6.38,-3.86 12.51,-4.31 5.88,-0.43 9.88,0.34 12.26,2.45 2.28,2.02 3.43,6.29 3.43,12.61z"/>
  <path class="fil11" d="M978.96 3039.48c2.02,-13.47 0.92,-25.71 -3.36,-36.65 -11.6,-24.79 -30.92,-34.43 -57.99,-29.03 -23.24,3.68 -40.77,15.77 -52.73,36.22 -12.75,25.59 -13.63,49.56 -2.7,71.86 14.97,22.52 33.37,31.88 55.17,28.1 -6.95,-8.3 -14.21,-16.95 -21.87,-26.06l65.65 -62.17c1.8,0.72 7.77,6.69 17.83,17.73zm599.9 -273c7.16,33.09 11.41,65.25 12.77,96.5l-137.92 31.15 5.15 33.62 132.3 -28.81 12.66 92.42c-5.25,1.84 -48.91,11.71 -131.07,29.44l4.47 31.8c85.36,-20.83 130.91,-31.38 136.53,-31.65 7.73,37.27 12.02,68.59 12.86,93.85 -55.67,16.16 -135.03,33.42 -238.14,51.8 -6.48,-38.57 -12.72,-78.66 -18.73,-120.27 -8.94,53.58 -34.47,93.92 -76.63,121.03 -27.09,15.82 -56.45,23.42 -88.22,22.87 -53.49,-6.75 -92.89,-51.08 -118.24,-132.93 -0.79,-3.29 -1.56,-6.59 -2.3,-9.9 -0.45,3.66 -0.97,7.35 -1.57,11.07 -5.73,27.5 -14.26,51.38 -25.59,71.64 10.34,12.24 21.52,25.49 33.55,39.69 -17.33,19.73 -39.44,41.14 -66.37,64.22 -1.83,-0.94 -11.91,-12.09 -30.22,-33.4 -47.89,34.65 -102.28,38.71 -163.17,12.24 -27.67,-14.85 -49.25,-38.77 -64.74,-71.69 -8.49,-20.54 -13.92,-41.58 -16.28,-63.06 -5.7,-128.76 50.04,-204.51 167.29,-227.21 47.94,-10.35 90.14,1.52 126.61,35.59 8.91,10.51 16.41,21.88 22.51,34.11 -1.33,-21.05 -1.9,-42.43 -1.72,-64.14 31.02,-9.54 62.7,-17.39 95.16,-23.58 12.48,106.5 25.27,173.93 38.45,202.33 10.51,21.24 22.82,29.81 36.95,25.83 16.15,-4.46 26.58,-18.34 31.22,-41.72 3.8,-33.19 -2.4,-101.46 -18.52,-204.87 34.35,-9.64 67.14,-16.21 98.42,-19.74 1.68,7.82 3.28,15.54 4.8,23.17 86.05,-23.39 161.95,-40.56 227.71,-51.41z"/>
 </g>
</svg>
